# xmcd
#
# Track frame offsets: 
#        151
#        17658
#        37789
#        54122
#        68767
#        86736
#        105081
#        122584
#        140917
#        156092
#        172919
#        190960
#
# Disc length: 2813 seconds
#
# Revision: 0
# Processed by: cddbd v1.5.1PL2 Copyright (c) Steve Scherf et al.
# Submitted via: ExactAudioCopy v0.95b4
#
DISCID=8d0afb0c
DTITLE=รวมเพลงพระเอก  คณะพิณแคนแดนอีสาน - ดาวรุ่ง 1
DYEAR=2006
DGENRE=Country
TTITLE0=แพ้หนุ่มตะวันแดง
TTITLE1=เจินจานในงานแต่ง
TTITLE2=ขอยาดมใจ
TTITLE3=ขี้ค้านเว้า
TTITLE4=ขอเพลงนี้แน
TTITLE5=บ่างขี้ค้านคนโก้
TTITLE6=เลี้ยงส่งความอกหัก
TTITLE7=หลับบ่เต็มตา
TTITLE8=ข่วยเขาเราช้ำ
TTITLE9=บอกรักทางตา
TTITLE10=หนังโศก
TTITLE11=ปีใหม่ใจเหงา
EXTD=
EXTT0=
EXTT1=
EXTT2=
EXTT3=
EXTT4=
EXTT5=
EXTT6=
EXTT7=
EXTT8=
EXTT9=
EXTT10=
EXTT11=
PLAYORDER=
